<?xml version="1.0" encoding="UTF-8" standalone="no"?>
<svg
   xmlns:dc="http://purl.org/dc/elements/1.1/"
   xmlns:cc="http://creativecommons.org/ns#"
   xmlns:rdf="http://www.w3.org/1999/02/22-rdf-syntax-ns#"
   xmlns:svg="http://www.w3.org/2000/svg"
   xmlns="http://www.w3.org/2000/svg"
   viewBox="0 0 566.92932 566.92932"
   height="566.92932"
   width="566.92932"
   xml:space="preserve"
   id="svg2"
   version="1.1"><metadata
     id="metadata8"><rdf:RDF><cc:Work
         rdf:about=""><dc:format>image/svg+xml</dc:format><dc:type
           rdf:resource="http://purl.org/dc/dcmitype/StillImage" /></cc:Work></rdf:RDF></metadata><defs
     id="defs6"><clipPath
       id="clipPath18"
       clipPathUnits="userSpaceOnUse"><path
         id="path16"
         d="M 0,425.197 H 425.197 V 0 H 0 Z" /></clipPath></defs><g
     transform="matrix(1.3333333,0,0,-1.3333333,0,566.92933)"
     id="g10"><g
       id="g12"><g
         clip-path="url(#clipPath18)"
         id="g14"><g
           transform="translate(174.1389,312.9112)"
           id="g20"><path
             id="path22"
             style="fill:#e10f7e;fill-opacity:1;fill-rule:nonzero;stroke:none"
             d="m 0,0 c 1.57,-12.628 -7.622,-24.167 -20.532,-25.774 -12.91,-1.607 -24.651,7.327 -26.221,19.955 -1.571,12.628 7.621,24.168 20.532,25.775 C -13.311,21.562 -1.571,12.628 0,0" /></g><g
           transform="translate(163.0969,265.2632)"
           id="g24"><path
             id="path26"
             style="fill:#e10f7e;fill-opacity:1;fill-rule:nonzero;stroke:none"
             d="m 0,0 c -0.137,16.032 10.904,27.348 26.852,27.519 0.203,0.002 0.403,-0.013 0.606,-0.017 l 19.061,44.751 c 1.774,4.525 1.67,8.792 -0.317,13.045 -1.991,4.256 -5.295,7.121 -10.099,8.759 -3.075,1.047 -6.169,1.332 -9.199,0.847 -1.702,-0.272 -3.432,-0.793 -5.141,-1.549 -4.796,-2.121 -8.015,-5.306 -9.851,-9.758 L 5.068,67.429 C 11.193,62.991 15.204,56.492 16.373,49.097 17.56,41.619 15.693,34.118 11.119,27.977 6.568,21.865 -0.132,17.829 -7.746,16.611 l -0.088,-0.014 c -15.79,-2.475 -30.626,8.074 -33.072,23.517 -0.902,5.699 0.023,11.577 2.606,16.771 L -50,67.459 c -3.499,3.233 -7.745,4.715 -12.978,4.531 -0.969,-0.035 -1.923,-0.127 -2.834,-0.272 -4.05,-0.648 -7.471,-2.346 -10.458,-5.193 -3.619,-3.45 -5.412,-7.447 -5.483,-12.219 -0.066,-4.724 1.674,-8.626 5.317,-11.927 l 57.684,-52.061 13.829,-58.297 c 0.996,-4.625 3.571,-8.06 7.876,-10.499 3.846,-2.183 7.862,-2.9 12.278,-2.194 0.58,0.091 1.172,0.211 1.763,0.354 l 0.628,0.167 c 4.962,1.329 8.699,3.954 11.426,8.025 2.673,3.992 3.441,8.107 2.346,12.602 l -5.079,21.552 -6.124,6.044 C 18.326,-30.356 0.128,-14.644 0,0" /></g><g
           transform="translate(290.7082,311.2198)"
           id="g28"><path
             id="path30"
             style="fill:#21409a;fill-opacity:1;fill-rule:nonzero;stroke:none"
             d="m 0,0 c -0.322,-12.163 -10.603,-21.77 -22.962,-21.456 -12.359,0.314 -22.117,10.429 -21.795,22.593 0.323,12.163 10.604,21.769 22.963,21.455 C -9.435,22.278 0.323,12.164 0,0" /></g><g
           transform="translate(341.6691,239.3184)"
           id="g32"><path
             id="path34"
             style="fill:#21409a;fill-opacity:1;fill-rule:nonzero;stroke:none"
             d="m 0,0 c -2.295,4.677 -5.77,7.858 -10.312,9.45 l -48.489,16.628 c -2.259,0.774 -2.683,3.736 -0.731,5.097 l 44.391,30.955 c 3.974,2.819 6.469,6.835 7.416,11.933 0.948,5.111 0.088,9.956 -2.554,14.4 -2.633,4.425 -6.371,7.258 -11.112,8.419 -1.431,0.351 -2.846,0.522 -4.206,0.509 -3.123,-0.03 -6.102,-1.036 -8.87,-2.999 l -12.426,-8.68 c -1.113,-0.777 -1.542,-2.207 -1.021,-3.448 1.47,-3.51 2.183,-7.289 2.08,-11.132 -0.394,-14.837 -12.508,-26.571 -27.578,-26.716 -0.334,-0.003 -0.669,0 -1.005,0.008 -7.441,0.189 -14.361,3.218 -19.485,8.53 -5.124,5.311 -7.839,12.27 -7.645,19.593 0.239,9.006 4.894,17.169 12.382,22.08 0.985,0.646 1.508,1.79 1.301,2.937 l -1.481,8.206 c -0.812,5.219 -3.223,9.404 -7.166,12.441 -3.198,2.465 -6.716,3.697 -10.456,3.661 -0.849,-0.008 -1.727,-0.081 -2.609,-0.218 -4.696,-0.883 -8.457,-3.464 -11.177,-7.67 -2.742,-4.239 -3.657,-9.026 -2.719,-14.234 l 8.146,-46.128 c 0.978,0.159 1.974,0.251 2.988,0.261 7.653,0.082 14.609,-2.562 19.587,-7.445 5,-4.904 7.678,-11.649 7.745,-19.508 0.126,-14.64 -17.799,-30.737 -19.633,-32.344 l -9.464,-9.707 -1.182,-22.623 c -0.291,-5.15 1.058,-9.704 4.012,-13.539 1.919,-2.494 4.234,-4.297 6.877,-5.358 1.399,-0.56 2.921,-0.926 4.516,-1.088 l 0.317,-0.03 c 0.472,-0.046 0.947,-0.067 1.421,-0.062 0.273,0.003 0.573,0.019 0.893,0.048 8.709,0.779 15.561,7.647 16.569,16.196 0.083,0.701 0.153,1.37 0.204,1.985 l 1.768,30.096 c 0.114,1.945 2.109,3.227 3.965,2.549 l 53.08,-19.432 1.631,-0.561 c 1.881,-0.69 3.78,-1.031 5.643,-1.012 0.576,0.005 1.156,0.045 1.726,0.118 3.275,0.419 6.253,1.831 8.85,4.198 2.602,2.371 4.366,5.408 5.242,9.028 l 0.016,0.063 C 2.788,-9.586 2.302,-4.692 0,0" /></g><g
           transform="translate(229.3693,289.545)"
           id="g36"><path
             id="path38"
             style="fill:#e8b710;fill-opacity:1;fill-rule:nonzero;stroke:none"
             d="m 0,0 c -8.261,-0.088 -15.469,-6.548 -19.586,-13.091 -4.228,6.454 -11.536,12.759 -19.797,12.671 -12.943,-0.139 -23.359,-9.001 -23.232,-23.83 0.118,-13.582 18.997,-29.252 18.997,-29.252 l 24.593,-24.272 24.171,24.793 c 0,0 18.608,16.071 18.491,29.653 C 23.51,-8.5 12.942,0.139 0,0" /></g><g
           transform="translate(221.5871,241.7364)"
           id="g40"><path
             id="path42"
             style="fill:#21409a;fill-opacity:1;fill-rule:nonzero;stroke:none"
             d="M 0,0 C 1.623,-0.042 3.002,-0.602 4.137,-1.68 5.271,-2.757 5.799,-4.025 5.72,-5.487 5.685,-6.91 5.097,-8.118 3.953,-9.111 2.811,-10.106 1.45,-10.603 -0.126,-10.602 H -0.33 l -21.491,0.653 c -1.127,0.04 -2.166,0.356 -3.118,0.946 -0.951,0.59 -1.656,1.362 -2.112,2.317 -0.459,0.955 -0.6,1.94 -0.428,2.956 0.172,1.015 0.664,1.908 1.468,2.679 0.671,0.731 1.835,1.906 3.492,3.531 1.835,1.745 3.223,3.093 4.163,4.048 0.941,0.952 2.07,2.17 3.389,3.653 1.32,1.48 2.313,2.81 2.981,3.987 0.668,1.178 1.065,2.274 1.194,3.289 0.086,0.527 0.082,1.045 -0.012,1.555 -0.093,0.506 -0.276,0.953 -0.55,1.34 -0.274,0.385 -0.614,0.68 -1.021,0.884 -1.313,0.692 -2.931,0.31 -5.307,-1.516 -1.255,-0.933 -3.746,-4.037 -6.011,-4.156 -1.628,-0.085 -3.122,0.084 -4.166,1.223 -1.047,1.138 -1.586,2.447 -1.381,3.9 1.007,7.134 10.017,10.791 13.373,11.274 3.354,0.486 6.458,-0.005 9.309,-1.469 2.76,-1.424 4.827,-3.487 6.199,-6.189 C 1.013,21.6 1.437,18.767 0.918,15.803 0.66,14.056 0.04,12.249 -0.936,10.381 -1.915,8.514 -3.007,6.82 -4.214,5.298 -5.42,3.775 -6.896,2.121 -8.641,0.336 Z" /></g></g></g><text
       id="text46"
       style="font-variant:normal;font-weight:100;font-stretch:normal;font-size:36.67610168px;font-family:Exo;-inkscape-font-specification:Exo-Regular;writing-mode:lr-tb;fill:#21409a;fill-opacity:1;fill-rule:nonzero;stroke:none"
       transform="matrix(1,0,0,-1,118.9482,128.7021)"><tspan
         id="tspan44"
         y="0"
         x="0 22.152365 44.304729 66.200363 75.369385 96.714874 105.8839 130.53024 141.67978 166.91293">YES 2 KIDS</tspan></text>
<text
       id="text50"
       style="font-variant:normal;font-weight:100;font-stretch:normal;font-size:26.9197998px;font-family:Exo;-inkscape-font-specification:Exo-Regular;writing-mode:lr-tb;fill:#21409a;fill-opacity:1;fill-rule:nonzero;stroke:none"
       transform="matrix(1,0,0,-1,80.0986,100.3008)"><tspan
         id="tspan48"
         y="0"
         x="0 26.704441 56.585419 86.17028 116.02434 145.1758 173.39043 200.1218 218.0773 247.95828">FOUNDATION</tspan></text>
</g></svg>